<svg width="20" height="17" viewBox="0 0 20 17" fill="none" xmlns="http://www.w3.org/2000/svg">
<path d="M20 2.42383C19.2477 2.75196 18.452 2.97003 17.6375 3.07133C18.4958 2.56211 19.1376 1.75578 19.4412 0.805078C18.6375 1.28175 17.7582 1.61742 16.8412 1.79758C16.2791 1.1973 15.5493 0.779977 14.7469 0.599821C13.9444 0.419666 13.1063 0.485008 12.3415 0.787358C11.5766 1.08971 10.9204 1.61509 10.458 2.29525C9.99566 2.97541 9.74853 3.7789 9.74875 4.60133C9.74875 4.92633 9.77625 5.23883 9.84375 5.53633C8.2126 5.45636 6.6167 5.03301 5.16038 4.29398C3.70406 3.55494 2.42012 2.51685 1.3925 1.24758C0.866024 2.1499 0.703261 3.21897 0.937354 4.23708C1.17145 5.2552 1.78479 6.14582 2.6525 6.72758C2.00345 6.71017 1.36809 6.53697 0.8 6.22258V6.26758C0.801087 7.21437 1.12833 8.13188 1.72665 8.86565C2.32496 9.59943 3.15781 10.1047 4.085 10.2963C3.73423 10.3888 3.37273 10.4342 3.01 10.4313C2.74949 10.436 2.48923 10.4125 2.23375 10.3613C2.49868 11.1751 3.00936 11.8868 3.69549 12.3983C4.38162 12.9098 5.20945 13.196 6.065 13.2176C4.61367 14.3526 2.82372 14.9684 0.98125 14.9663C0.645 14.9663 0.3225 14.9513 0 14.9101C1.87485 16.1183 4.05959 16.7574 6.29 16.7501C13.835 16.7501 17.96 10.5001 17.96 5.08258C17.96 4.90133 17.9538 4.72633 17.945 4.55258C18.7537 3.97381 19.4501 3.25243 20 2.42383Z" fill="white"/>
</svg>
